STARTFONT 2.1
FONT -gwnce-2xRegular-R-Regular--9-180-150-75-c-80-0-1
SIZE 18 75 75
FONTBOUNDINGBOX 18 18 0 -4
STARTPROPERTIES 8
FAMILY_NAME "gwnce"
WEIGHT_NAME "Regular"
FOUNDRY "sewergweller"
FONT_ASCENT 14
FONT_DESCENT 4
POINT_SIZE 180
X_HEIGHT 0
CAP_HEIGHT 0
ENDPROPERTIES
CHARS 46
STARTCHAR U+E000
ENCODING 57344
SWIDTH 2000 0
DWIDTH 18 0
BBX 18 18 0 -4
BITMAP
00C00000
00C00000
3CCF0000
3CCF0000
30C30000
30C30000
C0C0C000
C0C0C000
C0C0C000
C0C0C000
C000C000
C000C000
30030000
30030000
3C0F0000
3C0F0000
03F00000
03F00000
ENDCHAR
STARTCHAR U+E001
ENCODING 57345
SWIDTH 2000 0
DWIDTH 18 0
BBX 18 18 0 -4
BITMAP
00FF0000
00FF0000
3C3C0000
3C3C0000
30330000
30330000
C000C000
C000C000
C000C000
C000C000
C000C000
C000C000
30030000
30030000
3C0F0000
3C0F0000
03F00000
03F00000
ENDCHAR
STARTCHAR U+E002
ENCODING 57346
SWIDTH 2000 0
DWIDTH 18 0
BBX 18 18 0 -4
BITMAP
00F00000
00F00000
000F0000
000F0000
000F0000
000F0000
000FC000
000FC000
C00FC000
C00FC000
C03FC000
C03FC000
3FFF0000
3FFF0000
3FFF0000
3FFF0000
03F00000
03F00000
ENDCHAR
STARTCHAR U+E003
ENCODING 57347
SWIDTH 2000 0
DWIDTH 18 0
BBX 18 18 0 -4
BITMAP
03F00000
03F00000
00FC0000
00FC0000
0CFC0000
0CFC0000
30FC0000
30FC0000
C3F00000
C3F00000
30000000
30000000
0CFF0000
0CFF0000
C0FFC000
C0FFC000
FFFFC000
FFFFC000
ENDCHAR
STARTCHAR U+E004
ENCODING 57348
SWIDTH 2000 0
DWIDTH 18 0
BBX 18 10 0 0
BITMAP
FFFC0000
FFFC0000
C00CC000
C00CC000
C00CC000
C00CC000
C00CC000
C00CC000
FFFC0000
FFFC0000
ENDCHAR
STARTCHAR U+E005
ENCODING 57349
SWIDTH 2000 0
DWIDTH 18 0
BBX 18 10 0 0
BITMAP
FFFC0000
FFFC0000
F00CC000
F00CC000
F00CC000
F00CC000
F00CC000
F00CC000
FFFC0000
FFFC0000
ENDCHAR
STARTCHAR U+E006
ENCODING 57350
SWIDTH 2000 0
DWIDTH 18 0
BBX 18 10 0 0
BITMAP
FFFC0000
FFFC0000
FC0CC000
FC0CC000
FC0CC000
FC0CC000
FC0CC000
FC0CC000
FFFC0000
FFFC0000
ENDCHAR
STARTCHAR U+E007
ENCODING 57351
SWIDTH 2000 0
DWIDTH 18 0
BBX 18 10 0 0
BITMAP
FFFC0000
FFFC0000
FF0CC000
FF0CC000
FF0CC000
FF0CC000
FF0CC000
FF0CC000
FFFC0000
FFFC0000
ENDCHAR
STARTCHAR U+E008
ENCODING 57352
SWIDTH 2000 0
DWIDTH 18 0
BBX 18 10 0 0
BITMAP
FFFC0000
FFFC0000
FFCCC000
FFCCC000
FFCCC000
FFCCC000
FFCCC000
FFCCC000
FFFC0000
FFFC0000
ENDCHAR
STARTCHAR U+E009
ENCODING 57353
SWIDTH 2000 0
DWIDTH 18 0
BBX 18 10 0 0
BITMAP
FFFC0000
FFFC0000
FFFCC000
FFFCC000
FFFCC000
FFFCC000
FFFCC000
FFFCC000
FFFC0000
FFFC0000
ENDCHAR
STARTCHAR U+E00A
ENCODING 57354
SWIDTH 2000 0
DWIDTH 18 0
BBX 18 14 0 -2
BITMAP
03000000
03000000
CCCC0000
CCCC0000
C0CCC000
C0CCC000
C0CCC000
C0CCC000
C30CC000
C30CC000
F03C0000
F03C0000
03000000
03000000
ENDCHAR
STARTCHAR U+E00B
ENCODING 57355
SWIDTH 2000 0
DWIDTH 18 0
BBX 18 14 0 -2
BITMAP
00C00000
00C00000
C30C0000
C30C0000
CC0CC000
CC0CC000
CFCCC000
CFCCC000
C0CCC000
C0CCC000
C30C0000
C30C0000
0C000000
0C000000
ENDCHAR
STARTCHAR U+E00C
ENCODING 57356
SWIDTH 2000 0
DWIDTH 18 0
BBX 18 14 0 -2
BITMAP
00C00000
00C00000
C30C0000
C30C0000
CC0FC000
CC0FC000
CFCFC000
CFCFC000
C0CFC000
C0CFC000
C30C0000
C30C0000
0C000000
0C000000
ENDCHAR
STARTCHAR U+E00D
ENCODING 57357
SWIDTH 2000 0
DWIDTH 18 0
BBX 14 18 2 -4
BITMAP
0FFC
0FFC
0FFC
0FFC
0C0C
0C0C
0C0C
0C0C
0C0C
0C0C
0C0C
0C0C
3C3C
3C3C
FCFC
FCFC
F0F0
F0F0
ENDCHAR
STARTCHAR U+E00E
ENCODING 57358
SWIDTH 2000 0
DWIDTH 18 0
BBX 14 14 2 -2
BITMAP
030C
030C
0C30
0C30
30C0
30C0
C300
C300
30C0
30C0
0C30
0C30
030C
030C
ENDCHAR
STARTCHAR U+E00F
ENCODING 57359
SWIDTH 2000 0
DWIDTH 18 0
BBX 14 14 2 -2
BITMAP
C300
C300
30C0
30C0
0C30
0C30
030C
030C
0C30
0C30
30C0
30C0
C300
C300
ENDCHAR
STARTCHAR U+E010
ENCODING 57360
SWIDTH 2000 0
DWIDTH 18 0
BBX 10 14 4 -2
BITMAP
C0C0
C0C0
C0C0
C0C0
C0C0
C0C0
C0C0
C0C0
C0C0
C0C0
C0C0
C0C0
C0C0
C0C0
ENDCHAR
STARTCHAR U+E011
ENCODING 57361
SWIDTH 2000 0
DWIDTH 18 0
BBX 10 14 4 -2
BITMAP
F000
F000
CC00
CC00
0300
0300
00C0
00C0
0300
0300
CC00
CC00
F000
F000
ENDCHAR
STARTCHAR U+E012
ENCODING 57362
SWIDTH 2000 0
DWIDTH 18 0
BBX 14 14 2 -2
BITMAP
F0FC
F0FC
F03C
F03C
0CCC
0CCC
0300
0300
0CCC
0CCC
F03C
F03C
F0FC
F0FC
ENDCHAR
STARTCHAR U+E013
ENCODING 57363
SWIDTH 2000 0
DWIDTH 18 0
BBX 18 18 0 -4
BITMAP
03C00000
03C00000
0FC00000
0FC00000
FFC00000
FFC00000
FFCCC000
FFCCC000
FFC30000
FFC30000
FFCCC000
FFCCC000
FFC00000
FFC00000
0FC00000
0FC00000
03C00000
03C00000
ENDCHAR
STARTCHAR U+E014
ENCODING 57364
SWIDTH 2000 0
DWIDTH 18 0
BBX 18 18 0 -4
BITMAP
03C00000
03C00000
0FC00000
0FC00000
FFC00000
FFC00000
FFCC0000
FFCC0000
FFCCC000
FFCCC000
FFCC0000
FFCC0000
FFC00000
FFC00000
0FC00000
0FC00000
03C00000
03C00000
ENDCHAR
STARTCHAR U+E015
ENCODING 57365
SWIDTH 2000 0
DWIDTH 18 0
BBX 18 18 0 -4
BITMAP
03C00000
03C00000
0FC30000
0FC30000
FFC0C000
FFC0C000
FFCCC000
FFCCC000
FFCCC000
FFCCC000
FFCCC000
FFCCC000
FFC0C000
FFC0C000
0FC30000
0FC30000
03C00000
03C00000
ENDCHAR
STARTCHAR U+E016
ENCODING 57366
SWIDTH 2000 0
DWIDTH 18 0
BBX 14 18 2 -4
BITMAP
0CC0
0CC0
0300
0300
0CC0
0CC0
0000
0000
CFCC
CFCC
C30C
C30C
3030
3030
0FC0
0FC0
0300
0300
ENDCHAR
STARTCHAR U+E017
ENCODING 57367
SWIDTH 2000 0
DWIDTH 18 0
BBX 14 18 2 -4
BITMAP
0300
0300
0FC0
0FC0
0FC0
0FC0
0FC0
0FC0
CFCC
CFCC
C30C
C30C
3030
3030
0FC0
0FC0
0300
0300
ENDCHAR
STARTCHAR U+E018
ENCODING 57368
SWIDTH 2000 0
DWIDTH 18 0
BBX 18 18 0 -4
BITMAP
30C30000
30C30000
33F30000
33F30000
C3F0C000
C3F0C000
03F00000
03F00000
33F30000
33F30000
30C30000
30C30000
0C0C0000
0C0C0000
03F00000
03F00000
00C00000
00C00000
ENDCHAR
STARTCHAR U+E019
ENCODING 57369
SWIDTH 2000 0
DWIDTH 18 0
BBX 6 10 6 0
BITMAP
C000
C000
3000
3000
0C00
0C00
3000
3000
C000
C000
ENDCHAR
STARTCHAR U+E01A
ENCODING 57370
SWIDTH 2000 0
DWIDTH 18 0
BBX 10 6 4 2
BITMAP
C0C0
C0C0
3300
3300
0C00
0C00
ENDCHAR
STARTCHAR U+E01B
ENCODING 57371
SWIDTH 2000 0
DWIDTH 18 0
BBX 6 10 6 0
BITMAP
0C00
0C00
3000
3000
C000
C000
3000
3000
0C00
0C00
ENDCHAR
STARTCHAR U+E01C
ENCODING 57372
SWIDTH 2000 0
DWIDTH 18 0
BBX 10 6 4 2
BITMAP
0C00
0C00
3300
3300
C0C0
C0C0
ENDCHAR
STARTCHAR U+E01D
ENCODING 57373
SWIDTH 2000 0
DWIDTH 18 0
BBX 18 18 0 -4
BITMAP
0FC00000
0FC00000
30300000
30300000
C00C0000
C00C0000
C00C0000
C00C0000
C00C0000
C00C0000
30300000
30300000
0FCC0000
0FCC0000
00030000
00030000
0000C000
0000C000
ENDCHAR
STARTCHAR U+E01E
ENCODING 57374
SWIDTH 2000 0
DWIDTH 18 0
BBX 14 14 2 -2
BITMAP
FFFC
FFFC
0000
0000
0000
0000
FFFC
FFFC
0000
0000
0000
0000
FFFC
FFFC
ENDCHAR
STARTCHAR U+E01F
ENCODING 57375
SWIDTH 2000 0
DWIDTH 18 0
BBX 18 18 0 -4
BITMAP
3C0F0000
3C0F0000
C330C000
C330C000
C330C000
C330C000
3FFF0000
3FFF0000
03300000
03300000
3FFF0000
3FFF0000
C330C000
C330C000
C330C000
C330C000
3C0F0000
3C0F0000
ENDCHAR
STARTCHAR U+E020
ENCODING 57376
SWIDTH 2000 0
DWIDTH 18 0
BBX 18 18 0 -4
BITMAP
30030000
30030000
F003C000
F003C000
0C0C0000
0C0C0000
03300000
03300000
00C00000
00C00000
03300000
03300000
0C0C0000
0C0C0000
F003C000
F003C000
30030000
30030000
ENDCHAR
STARTCHAR U+E021
ENCODING 57377
SWIDTH 2000 0
DWIDTH 18 0
BBX 18 18 0 -4
BITMAP
000FC000
000FC000
0003C000
0003C000
000CC000
000CC000
00300000
00300000
00000000
00000000
03000000
03000000
CC000000
CC000000
F0000000
F0000000
FC000000
FC000000
ENDCHAR
STARTCHAR U+E022
ENCODING 57378
SWIDTH 2000 0
DWIDTH 18 0
BBX 18 18 0 -4
BITMAP
0000C000
0000C000
00330000
00330000
003C0000
003C0000
003F0000
003F0000
00000000
00000000
3F000000
3F000000
0F000000
0F000000
33000000
33000000
C0000000
C0000000
ENDCHAR
STARTCHAR U+E023
ENCODING 57379
SWIDTH 2000 0
DWIDTH 18 0
BBX 18 18 0 -4
BITMAP
FFC00000
FFC00000
003C0000
003C0000
FF0F0000
FF0F0000
03C30000
03C30000
F030C000
F030C000
0F3CC000
0F3CC000
030CC000
030CC000
F0CCC000
F0CCC000
F0CCC000
F0CCC000
ENDCHAR
STARTCHAR U+E024
ENCODING 57380
SWIDTH 2000 0
DWIDTH 18 0
BBX 14 14 0 -4
BITMAP
FF00
FF00
03C0
03C0
F030
F030
0F3C
0F3C
030C
030C
CA
CA
ENDCHAR
STARTCHAR U+E025
ENCODING 57381
SWIDTH 2000 0
DWIDTH 18 0
BBX 10 10 0 -4
BITMAP
F000
F000
0F00
0F00
0300
0300
F0C0
F0C0
F0C0
F0C0
ENDCHAR
STARTCHAR U+E026
ENCODING 57382
SWIDTH 2000 0
DWIDTH 18 0
BBX 14 14 0 -4
BITMAP
0C0C
0C0C
0330
0330
00C0
00C0
0330
0330
0C0C
0C0C
C000
C000
F000
F000
ENDCHAR
STARTCHAR U+E027
ENCODING 57383
SWIDTH 2000 0
DWIDTH 18 0
BBX 14 14 2 -2
BITMAP
C00C
C00C
CFCC
CFCC
C00C
C00C
C00C
C00C
C00C
C00C
CCCC
CCCC
FFFC
FFFC
ENDCHAR
STARTCHAR U+E028
ENCODING 57384
SWIDTH 2000 0
DWIDTH 18 0
BBX 14 14 2 -2
BITMAP
CCCC
CCCC
C30C
C30C
0CC0
0CC0
3030
3030
0000
0000
CCCC
CCCC
FFFC
FFFC
ENDCHAR
STARTCHAR U+E029
ENCODING 57385
SWIDTH 2000 0
DWIDTH 18 0
BBX 18 18 0 -4
BITMAP
03F00000
03F00000
3F3F0000
3F3F0000
33330000
33330000
FFFFC000
FFFFC000
C330C000
C330C000
FFC00000
FFC00000
330CC000
330CC000
3F030000
3F030000
03CCC000
03CCC000
ENDCHAR
STARTCHAR U+E02A
ENCODING 57386
SWIDTH 2000 0
DWIDTH 18 0
BBX 18 18 0 -4
BITMAP
0F000000
0F000000
0CC00000
0CC00000
CC000000
CC000000
3CCCC000
3CCCC000
0F030000
0F030000
3CCCC000
3CCCC000
CC000000
CC000000
0CC00000
0CC00000
0F000000
0F000000
ENDCHAR
STARTCHAR U+E02B
ENCODING 57387
SWIDTH 2000 0
DWIDTH 18 0
BBX 18 18 0 -4
BITMAP
0F000000
0F000000
0CC0C000
0CC0C000
CC330000
CC330000
3CC00000
3CC00000
0F0CC000
0F0CC000
3CC00000
3CC00000
CC330000
CC330000
0CC0C000
0CC0C000
0F000000
0F000000
ENDCHAR
STARTCHAR U+E02C
ENCODING 57388
SWIDTH 2000 0
DWIDTH 18 0
BBX 18 18 0 -4
BITMAP
0F000000
0F000000
0CC00000
0CC00000
CC300000
CC300000
3C00C000
3C00C000
0F330000
0F330000
3C0C0000
3C0C0000
CC000000
CC000000
0CC00000
0CC00000
0F000000
0F000000
ENDCHAR
ENDFONT
